# xmcd
#
# Track frame offsets: 
#        150
#        21278
#        43275
#        57243
#        76783
#        92989
#        107668
#        125948
#        140963
#
# Disc length: 2108 seconds
#
# Revision: 0
# Processed by: cddbd v1.4PL0 Copyright (c) Steve Scherf et al.
# Submitted via: ExactAudioCopy v0.90b3
#
DISCID=84083a09
DTITLE=Jartse Tuominen Featuring Clyneese Folsom - Black and Blue
DYEAR=1999
DGENRE=Blues
TTITLE0=My Heart Is Black And Blue (Siks' oon m‰ suruinen)
TTITLE1=This Little Heart Of Mine (Pieni syd‰n)
TTITLE2=Lilywhite (Liljankukka)
TTITLE3=Lonely Moon (T‰ysikuu)
TTITLE4=Rose Of New Orleans (Kotkan ruusu)
TTITLE5=Love Me Or Leave Me (Rakasta, k‰rsi ja unhoita)
TTITLE6=Wonderland (Satumaa)
TTITLE7=You Are A Part Of Everything (S‰ kuulut p‰iv‰‰n jokaiseen)
TTITLE8=Starlight Night (T‰hdet meren yll‰)
EXTD=
EXTT0=
EXTT1=
EXTT2=
EXTT3=
EXTT4=
EXTT5=
EXTT6=
EXTT7=
EXTT8=
PLAYORDER=
